<svg xmlns="http://www.w3.org/2000/svg" viewBox="0 0 48 48">
<path fill="#9E7CC1" d="M36.761,48H29.62V21.776c0,0-0.117-0.351-0.234-1.171c-1.522-2.341-8.546-1.054-20.839,3.746c0,0,0-1.99,0-6.088
	s0-8.078,0-12.176V0h7.376v15.571c0.351-0.117,0.702-0.234,1.288-0.468c0.468-0.117,1.405-0.468,2.927-0.82
	c1.405-0.351,2.81-0.585,4.098-0.82c1.288-0.117,2.693-0.234,4.332-0.117c1.522,0.117,2.927,0.351,4.098,0.937
	c1.171,0.585,2.107,1.405,2.927,2.693c0.82,1.288,1.171,2.81,1.171,4.8V48z M33.834,9.483H25.99c0.82-1.054,1.639-2.341,2.576-3.98
	c0.937-1.522,1.639-2.81,2.107-3.863L31.376,0h8.078C38.517,2.693,36.644,5.854,33.834,9.483z M16.156,40.39l-7.493,7.493V33.015
	L16.156,40.39z"/>
</svg>