<?xml version="1.0" encoding="utf-8"?>
<!-- Generator: Adobe Illustrator 15.1.0, SVG Export Plug-In . SVG Version: 6.00 Build 0)  -->
<!DOCTYPE svg PUBLIC "-//W3C//DTD SVG 1.1//EN" "http://www.w3.org/Graphics/SVG/1.1/DTD/svg11.dtd">
<svg version="1.1" id="phil" xmlns="http://www.w3.org/2000/svg" xmlns:xlink="http://www.w3.org/1999/xlink" x="0px" y="0px"
	 width="1024px" height="1024px" viewBox="0 0 1024 1024" enable-background="new 0 0 1024 1024" xml:space="preserve">
<path id="shirt" d="M-14,777c0,0,87-27,134-30s72-14,105-9c13.8,2.1,50-18,72-18s44,7,52,7s26-37,38-35c9.8,1.6,227.1,70.6,319,120
	c20.3,10.9,28.8,33.5,34,40c29,36,41,39,52,48s17-1,64,29s62,17,94,40s44,43,59,63c-97,1-1022,1-1022,1L-14,777z"/>
<path id="head" fill="#FFFFFF" d="M748.3,314.5c0,0,14-4.8,21.3-4s21,10,25.3,21.8s4.3,24,5.5,33s3.3,14.5,3.8,21s-1.8,12.5-2,20
	s-4.5,23-11.3,33.3S774.4,456.3,769,462c-5.3,5.6-8.9,10.8-13.8,12c-9.5,21.6-25.2,82.3-29.2,122.8s-1.8,89.4-4,129.2
	s-4.7,58.7-2.7,77.7s10.4,37.3,9.9,50.6s-20.9,26.8-37.4,23.1s-48.6-10.8-74.8-21.6s-54.8-22.3-92.5-43s-99.6-61.4-112.8-72.9
	s-21.3-22.2-25.8-34.7c-2.2-6,2-32.7,2-32.7s-84.1-73-90.8-116.3s-6.5-47.3-8.8-64.5s-5.5-34.5-4.8-48.8s3.1-25.9,3.8-42.7
	s2.2-38.5-1.3-53.5s-6.4-16.2-6-31.2c0.3-10.1,4.2-19.2,7-31.7s15.8-71.2,26-88.5s28.2-38.8,36.2-48.3s19.5-19,27.3-25.8
	s54.8-25.8,71.3-28.5s38.8,0,55.8,1.5c0,0,27.5,4.5,44.3,8.3s28.8,6.8,42.8,11.3s42,20.3,61,31.5s36.8,26.8,49.8,45.3
	s26.9,47.6,31.5,61.8C740.3,275.5,748.3,314.5,748.3,314.5z"/>
<path id="earring" d="M750,482.1c1-3.5,2-8.2,2.2-13.4c0.3-8.3-1.6-13.4-3.3-15s-3.9-3.5-6.4-1.4s0.5,5.8,0.5,5.8s2,2.6,2.5,9.8
	c0.3,3.7-0.7,8.4-1.7,12c0,0-0.1,0-0.1,0c-5.4,0-9.8,4.4-9.8,9.8s4.4,9.8,9.8,9.8s9.8-4.4,9.8-9.8
	C753.5,486.6,752.1,483.9,750,482.1z"/>
<g id="hair">
	<path d="M717.7,357.3c-1.7-16.3-17.7-58-17.7-58l-28.7-18.7c0,0,11.7,27.7,13,38.3s6,35.3,2,52s-30.3,56.3-38,66.7
		s-56.3,43.3-75,47s-39.3-1.3-45.7-8s-28.3-49-36.7-53.3s-40-11.7-52.3-15.3s-38.3-12.3-45.7-11.3c-5.5,0.7-16.3,10.7-20.7,11.7
		s-16,2.3-20.7,3.3s-11,13.3-17.3,23.3s-17.3,33.3-19.7,40.3s-0.7,45.3-4.7,55s-11.7,15.3-15,7.7s-7.7-54-7.7-47.7s0.3,60.3,0,79
		s17.3,37,20.7,45s9.3,22,20,32.3s30,20.7,46,26s58.3,13.3,76,13s63-4.3,91.7-14.7s77.3-41,92.3-49.7s72.7-61.7,76.7-69
		s13-49.7,14.3-76.7S719.3,373.7,717.7,357.3z M495.7,499c-1.3,9.7-16.7,25-28.7,29.3s-39,6.3-39-7s6.3-12,12.7-12.3
		c-0.3-6,3.9-11.8-12.7-14.7c-11.7-2-23.7,5-39.7,8.7s-24.7,3.7-30.7,8.3c-5.8,4.5-8.7,8.3-7,16.3c5-0.7,10.1,2.6,9.7,6
		c-0.7,5-6.7,7.5-14.3,6.3c-8.3-1.3-12.5-30.3-10-47.3c3-20.7,13.5-45.5,21-49.7c5.3-3,17.7-5.3,17.7-5.3c4.7-1,11.7-5.7,19-6.3
		S454,440,466,446C478.1,452.1,497.2,488.1,495.7,499z"/>
	<path d="M353,289.3c0,0,3-11-8.7-16s-34.3-0.7-45,4.7S282,296.3,279,307s-1.3,16.3,1,20.3c5.3-9.3,4.3-15,14-24.7
		s28-16.7,39.7-15.7S353,289.3,353,289.3z"/>
	<path d="M412.3,255.3c0,0,2.7-19.3,16-26.3s43-17.7,66-25.3c5.1-1.7,25-1.3,29,0.3s20.7,15.7,24.7,25s-0.3,10-0.3,10
		S519,228.3,507,225.7c-12-2.7-30.7,3-37.3,5.7s-14.3,13.3-31.3,19.7C433.2,252.9,412.3,255.3,412.3,255.3z"/>
</g>
<g id="lenses" opacity="0.25">
	<path d="M229.7,354.8c0,0,4.8,25.4,8.8,35.9c2.8,6,6.5,9.5,13,9.3s19.9-0.2,44.8-9.8C321,380.8,332,374,332,374s-0.5-12.5,2.3-19.5
		s5.5-17.5,11.5-20.8c9.2-5,9-9.5,9-9.5s4-24.8-1-29s-13-6.5-18.5-5.3s-59.3,14.3-71,19.3S227,332,225.8,334.8
		S229.7,354.8,229.7,354.8z"/>
	<path d="M565,238.5c0,0,3.8,15.5,3.8,26.3s-0.3,20.3-1,23s-1.7,5.8-5.8,8.5c-5.3,3.5-25.5,14.3-58,25.3
		c-31.6,10.7-63.8,18-70.3,17.8c-3-0.1-6.3-0.8-9.5-2.5s-16.3-18-21.3-27.5s-8.8-16.8-10-24.8s0.5-10.8,2.8-14s48-31.5,67.5-38.3
		s68.5-25.3,81-22.3s14,5.5,15.5,11.3S565,238.5,565,238.5z"/>
</g>
<g id="frame">
	<path d="M713.5,300.2c-6.2-8.3-18.7-17.8-33-29s-46.8-28.2-61.3-37.7s-43.7-28.3-46-29.5s-9.2-2-17.7-0.8
		c-30,4.2-51.5,11-86.2,23.8s-64.2,32-70.2,37s-8.2,9.3-8.2,9.3s-15.2,2.3-23.8,6.5c-7.1,3.4-13.5,8.3-13.5,8.3s0.5,0.3-12.2-1
		s-43.7,6.1-63.3,13.5c-26,9.8-43.7,22-54.3,30.2c-0.9,0.7-1.8,1.3-2.3,2.7s1,15.8,1.7,17.2s7,6,6.5,4.2s-2.2-11.2-2.5-14.7
		s2.2-6.3,3.7-7.5c8.3-7,20.8-14.8,44.8-24c37.3-14.3,64.9-17.1,67.7-16.2c4,1.3,10.5,3,11,6.5s-0.5,27.7-0.5,27.7s6.5-5.8,6.5-6.5
		s-2-1.2-2-1.2s0.8-18.5,0.7-19.8s-2.3-3.2-2.3-3.2s8.2-7.5,13.8-9.8c11.5-4.7,23-4.3,23-4.3s2-7.2,8.7-14s47.5-26.7,68.5-34.8
		c31.2-12,58.7-20.8,70.7-20c4.9,0.3,9.8,0.3,13.8,5.8s5.3,19.7,5.3,19.7l5.7,0.3l-4-14c0,0,4.7-3.5,6.2-3.7s3.2,1.3,3.2,1.3
		s-0.8,1-1,2.2s1,2.8,6.7,5.8s9.7,2.7,13.2,4.7s10.8,6.5,13,7.8s4.7,1.8,4.7,1.8l2-0.5c0,0,19,12.2,28.7,17.8s33,21.8,41.5,28
		s22.5,11.7,29.5,17.7s13.5,15.2,13.5,15.2l4.3-0.2C727.5,322.8,719.7,308.5,713.5,300.2z"/>
	<path d="M249,341.2l0.3,16.2c0,0,17.5,10.5,22.2,14s16.3,13.5,16.3,13.5l0.3-13.5c0,0-8.3-6.3-16.2-12.3S249,341.2,249,341.2z"/>
	<path d="M243.7,337.2l-6.7-1.5c-3.3,5.3-2.3,17.3-2.3,17.3l4.5-1.5c0,0-0.3,4,0.8,6.3s2,1.3,4.2,3.8
		C243.2,357.3,243.7,337.2,243.7,337.2z"/>
	<path d="M274.2,397l12.3,11.8l0.8-16.3c0,0-1.3,1-6.2,2.7S274.2,397,274.2,397z"/>
	<path d="M417.2,296.7L404,301c0,0,3,6.3,5.2,10.3s5.8,9,5.8,9s3.3-4,4.2-6.2s-3.8-9.2-3.8-9.2s7.2-4.2,6.3-6.7
		S417.2,296.7,417.2,296.7z"/>
</g>
</svg>
