<svg xmlns="http://www.w3.org/2000/svg" viewBox="0.5 200.5 48 48">
<g>
	<path fill="#764ABC" d="M33.9,233.4c1.8-0.2,3.1-1.7,3.1-3.6c-0.1-1.8-1.6-3.3-3.4-3.3h-0.1c-1.9,0.1-3.4,1.7-3.3,3.6
		c0.1,0.9,0.4,1.7,1,2.3c-2.1,4.1-5.3,7.1-10.1,9.6c-3.2,1.7-6.6,2.3-10,1.9c-2.8-0.4-4.9-1.6-6.3-3.6c-2-3-2.1-6.3-0.5-9.5
		c1.2-2.3,3-4,4.2-4.9c-0.2-0.8-0.6-2.1-0.8-3.1c-8.9,6.4-8,15.1-5.3,19.2c2,3.1,6.1,5,10.7,5c1.2,0,2.5-0.1,3.7-0.4
		C24.6,245,30.5,240.4,33.9,233.4z"/>
	<path fill="#764ABC" d="M44.7,225.8c-4.7-5.5-11.5-8.5-19.4-8.5h-1c-0.6-1.1-1.7-1.8-3-1.8h-0.1c-1.9,0.1-3.4,1.7-3.3,3.6
		c0.1,1.8,1.6,3.3,3.4,3.3h0.1c1.3-0.1,2.5-0.9,3-2.1h1.1c4.7,0,9.1,1.3,13.1,4c3.1,2,5.3,4.7,6.5,7.8c1,2.6,1,5.1-0.1,7.2
		c-1.7,3.2-4.6,5-8.4,5c-2.5,0-4.8-0.7-6-1.3c-0.7,0.6-1.9,1.6-2.8,2.2c2.6,1.2,5.3,1.9,7.9,1.9c5.9,0,10.2-3.2,11.9-6.5
		C49.4,237.2,49.3,231,44.7,225.8L44.7,225.8z"/>
	<path fill="#764ABC" d="M13.5,234.5c0.1,1.8,1.6,3.3,3.4,3.3h0.1c1.9-0.1,3.4-1.7,3.3-3.6c-0.1-1.8-1.6-3.3-3.4-3.3h-0.1
		c-0.1,0-0.3,0-0.4,0.1c-2.5-4.2-3.6-8.7-3.2-13.6c0.2-3.7,1.5-6.9,3.6-9.5c1.8-2.3,5.2-3.4,7.5-3.4c6.5-0.1,9.3,8,9.4,11.2
		c0.8,0.2,2.1,0.6,3.1,0.9c-0.7-9.9-6.9-15.1-12.7-15.1c-5.5,0-10.6,4-12.6,9.9c-2.8,7.8-1,15.4,2.5,21.3
		C13.6,233.1,13.5,233.8,13.5,234.5L13.5,234.5z"/>
</g>
</svg>
